<svg xmlns="http://www.w3.org/2000/svg" viewBox="0 0 1200 630" role="img" aria-labelledby="title desc">
  <title id="title">Authenticated Privacy Proxy engineering case</title>
  <desc id="desc">Privacy infrastructure: authenticated ingress, network policy, layered routing, and DNS controls.</desc>
  <defs><radialGradient id="glow" cx="88%" cy="0%" r="78%"><stop offset="0" stop-color="#173f51"/><stop offset="1" stop-color="#080b10"/></radialGradient></defs>
  <rect width="1200" height="630" fill="url(#glow)"/>
  <rect x="70" y="70" width="82" height="82" rx="21" fill="#151c26" stroke="#324155"/>
  <path d="M111 90c-14 8-23 9-23 9v14c0 17 9 27 23 33 14-6 23-16 23-33V99s-9-1-23-9zm0 10c6 3 10 4 14 5v8c0 11-5 18-14 23-9-5-14-12-14-23v-8c4-1 8-2 14-5z" fill="#65d9e8"/>
  <text x="70" y="270" fill="#65d9e8" font-family="Arial, sans-serif" font-size="24" font-weight="700" letter-spacing="4">PRIVACY INFRASTRUCTURE</text>
  <text x="70" y="365" fill="#f4f7fb" font-family="Arial, sans-serif" font-size="60" font-weight="700">Authenticated Privacy Proxy</text>
  <text x="70" y="435" fill="#c4ccd7" font-family="Arial, sans-serif" font-size="31">Authenticated ingress · Policy · Tor routing · DNS controls</text>
  <line x1="70" y1="520" x2="1130" y2="520" stroke="#253041"/>
  <text x="70" y="566" fill="#a7b1c0" font-family="Arial, sans-serif" font-size="24">PatrickDev-it · Evidence-led engineering portfolio</text>
</svg>
